<mxfile host="Electron" agent="Mozilla/5.0 (Windows NT 10.0; Win64; x64) AppleWebKit/537.36 (KHTML, like Gecko) draw.io/24.7.17 Chrome/128.0.6613.36 Electron/32.0.1 Safari/537.36" version="24.7.17">
  <diagram name="Seite-1" id="DyeDs0ImESBqCO7Zks4m">
    <mxGraphModel dx="5886" dy="3400" grid="1" gridSize="19.685" guides="1" tooltips="1" connect="1" arrows="1" fold="1" page="1" pageScale="1" pageWidth="4681" pageHeight="3300" math="0" shadow="0">
      <root>
        <mxCell id="0" />
        <mxCell id="1" parent="0" />
        <mxCell id="YLB4VQ5ai_CObTcbY1BT-3" value="" style="rounded=0;whiteSpace=wrap;html=1;fillColor=#435461;fontColor=#333333;strokeColor=none;strokeWidth=3.1496;fontSize=40;" parent="1" vertex="1">
          <mxGeometry x="531.5" y="374.02" width="3307.08" height="98.42" as="geometry" />
        </mxCell>
        <mxCell id="YLB4VQ5ai_CObTcbY1BT-5" value="" style="rounded=0;whiteSpace=wrap;html=1;fillColor=#435461;fontColor=#333333;strokeColor=none;fontSize=40;" parent="1" vertex="1">
          <mxGeometry x="531.5" y="472.44" width="118.11" height="2047.24" as="geometry" />
        </mxCell>
        <mxCell id="YLB4VQ5ai_CObTcbY1BT-9" value="" style="rounded=0;whiteSpace=wrap;html=1;strokeColor=none;fontSize=40;" parent="1" vertex="1">
          <mxGeometry x="649.61" y="472.44" width="3070.86" height="2440.94" as="geometry" />
        </mxCell>
        <mxCell id="YLB4VQ5ai_CObTcbY1BT-10" value="" style="rounded=0;whiteSpace=wrap;html=1;strokeColor=none;fontSize=40;" parent="1" vertex="1">
          <mxGeometry x="531.5" y="2519.6699999999996" width="118.11" height="393.71" as="geometry" />
        </mxCell>
        <mxCell id="YLB4VQ5ai_CObTcbY1BT-11" value="" style="rounded=0;whiteSpace=wrap;html=1;fillColor=#435461;fontColor=#333333;strokeColor=none;fontSize=40;" parent="1" vertex="1">
          <mxGeometry x="3720.4800000000005" y="472.43" width="118.11" height="1161.43" as="geometry" />
        </mxCell>
        <mxCell id="YLB4VQ5ai_CObTcbY1BT-12" value="" style="rounded=0;whiteSpace=wrap;html=1;fillColor=#435461;fontColor=#333333;strokeColor=none;fontSize=40;" parent="1" vertex="1">
          <mxGeometry x="3720.4700000000003" y="2027.5599999999997" width="118.11" height="984.25" as="geometry" />
        </mxCell>
        <mxCell id="YLB4VQ5ai_CObTcbY1BT-13" value="" style="rounded=0;whiteSpace=wrap;html=1;strokeColor=none;fontSize=40;" parent="1" vertex="1">
          <mxGeometry x="3720.4750000000004" y="1633.8449999999998" width="118.11" height="393.71" as="geometry" />
        </mxCell>
        <mxCell id="YLB4VQ5ai_CObTcbY1BT-14" value="" style="rounded=0;whiteSpace=wrap;html=1;fillColor=#435461;fontColor=#333333;strokeColor=none;fontSize=40;" parent="1" vertex="1">
          <mxGeometry x="531.5" y="2913.37" width="1968.5" height="98.43" as="geometry" />
        </mxCell>
        <mxCell id="YLB4VQ5ai_CObTcbY1BT-15" value="" style="rounded=0;whiteSpace=wrap;html=1;fillColor=#dae8fc;strokeColor=none;fontSize=40;" parent="1" vertex="1">
          <mxGeometry x="2500.0000000000005" y="2913.37" width="1220.47" height="98.43" as="geometry" />
        </mxCell>
        <mxCell id="YLB4VQ5ai_CObTcbY1BT-16" value="" style="rounded=0;whiteSpace=wrap;html=1;fillColor=#ffe6cc;strokeColor=#d79b00;fontSize=40;" parent="1" vertex="1">
          <mxGeometry x="669.3" y="1948.8099999999997" width="59.05" height="472.44" as="geometry" />
        </mxCell>
        <mxCell id="YLB4VQ5ai_CObTcbY1BT-17" value="" style="rounded=0;whiteSpace=wrap;html=1;fillColor=#ffe6cc;strokeColor=#d79b00;fontSize=40;" parent="1" vertex="1">
          <mxGeometry x="1220.4800000000002" y="1476.35" width="492.13" height="59.04" as="geometry" />
        </mxCell>
        <mxCell id="YLB4VQ5ai_CObTcbY1BT-18" value="" style="rounded=0;whiteSpace=wrap;html=1;fillColor=#ffe6cc;strokeColor=#d79b00;fontSize=40;" parent="1" vertex="1">
          <mxGeometry x="669.31" y="1476.37" width="59.05" height="472.44" as="geometry" />
        </mxCell>
        <mxCell id="YLB4VQ5ai_CObTcbY1BT-19" value="" style="rounded=0;whiteSpace=wrap;html=1;fillColor=#ffe6cc;strokeColor=#d79b00;fontSize=40;" parent="1" vertex="1">
          <mxGeometry x="728.3549999999999" y="1476.3749999999998" width="492.13" height="59.04" as="geometry" />
        </mxCell>
        <mxCell id="YLB4VQ5ai_CObTcbY1BT-21" value="" style="endArrow=none;html=1;rounded=0;" parent="1" edge="1">
          <mxGeometry width="50" height="50" relative="1" as="geometry">
            <mxPoint x="3838.5800000000004" y="471.10999999999996" as="sourcePoint" />
            <mxPoint x="4271.91" y="471.21999999999997" as="targetPoint" />
          </mxGeometry>
        </mxCell>
        <mxCell id="YLB4VQ5ai_CObTcbY1BT-22" value="" style="endArrow=none;html=1;rounded=0;" parent="1" edge="1">
          <mxGeometry width="50" height="50" relative="1" as="geometry">
            <mxPoint x="3838.5850000000005" y="1633.3750000000002" as="sourcePoint" />
            <mxPoint x="4271.915" y="1633.4850000000001" as="targetPoint" />
          </mxGeometry>
        </mxCell>
        <mxCell id="YLB4VQ5ai_CObTcbY1BT-23" value="" style="endArrow=none;html=1;rounded=0;" parent="1" edge="1">
          <mxGeometry width="50" height="50" relative="1" as="geometry">
            <mxPoint x="3838.5800000000004" y="2027.5600000000002" as="sourcePoint" />
            <mxPoint x="4271.91" y="2027.6699999999998" as="targetPoint" />
          </mxGeometry>
        </mxCell>
        <mxCell id="YLB4VQ5ai_CObTcbY1BT-24" value="" style="endArrow=none;html=1;rounded=0;" parent="1" edge="1">
          <mxGeometry width="50" height="50" relative="1" as="geometry">
            <mxPoint x="3838.5850000000005" y="2911.9449999999997" as="sourcePoint" />
            <mxPoint x="4271.915" y="2912.055" as="targetPoint" />
          </mxGeometry>
        </mxCell>
        <mxCell id="YLB4VQ5ai_CObTcbY1BT-25" value="&lt;font face=&quot;Courier New&quot; style=&quot;font-size: 50px;&quot;&gt;295&lt;/font&gt;" style="endArrow=none;startArrow=none;html=1;rounded=0;startFill=0;endFill=0;" parent="1" edge="1">
          <mxGeometry width="50" height="50" relative="1" as="geometry">
            <mxPoint x="4231.91" y="1634.22" as="sourcePoint" />
            <mxPoint x="4232.28" y="472.44" as="targetPoint" />
          </mxGeometry>
        </mxCell>
        <mxCell id="YLB4VQ5ai_CObTcbY1BT-28" value="&lt;font style=&quot;font-size: 50px;&quot; face=&quot;Courier New&quot;&gt;100&lt;/font&gt;" style="endArrow=none;startArrow=none;html=1;rounded=0;startFill=0;endFill=0;" parent="1" edge="1">
          <mxGeometry width="50" height="50" relative="1" as="geometry">
            <mxPoint x="4231.91" y="2027.22" as="sourcePoint" />
            <mxPoint x="4232.28" y="1633.8600000000001" as="targetPoint" />
          </mxGeometry>
        </mxCell>
        <mxCell id="YLB4VQ5ai_CObTcbY1BT-29" value="Bed&lt;div&gt;H1&lt;/div&gt;" style="rounded=0;whiteSpace=wrap;html=1;fillColor=#d5e8d4;strokeColor=#82b366;fontSize=40;" parent="1" vertex="1">
          <mxGeometry x="2401.57" y="551.15" width="629.92" height="866.13" as="geometry" />
        </mxCell>
        <mxCell id="YLB4VQ5ai_CObTcbY1BT-31" value="" style="rounded=0;whiteSpace=wrap;html=1;fillColor=#2B92E0;fontColor=#333333;strokeColor=none;fontSize=40;" parent="1" vertex="1">
          <mxGeometry x="1043.31" y="2716.5299999999997" width="1181.1" height="196.85" as="geometry" />
        </mxCell>
        <mxCell id="YLB4VQ5ai_CObTcbY1BT-32" value="" style="rounded=0;whiteSpace=wrap;html=1;fillColor=#2B92E0;fontColor=#333333;strokeColor=none;fontSize=40;" parent="1" vertex="1">
          <mxGeometry x="3582.69" y="2145.66" width="137.79" height="629.91" as="geometry" />
        </mxCell>
        <mxCell id="YLB4VQ5ai_CObTcbY1BT-33" value="" style="rounded=0;whiteSpace=wrap;html=1;fillColor=#2B92E0;fontColor=#333333;strokeColor=none;fontSize=40;" parent="1" vertex="1">
          <mxGeometry x="3484.2500000000005" y="472.42" width="236.22" height="1161.43" as="geometry" />
        </mxCell>
        <mxCell id="YLB4VQ5ai_CObTcbY1BT-36" value="PC-Table -&amp;nbsp;&lt;span style=&quot;background-color: initial;&quot;&gt;W1&lt;/span&gt;" style="rounded=0;whiteSpace=wrap;html=1;fillColor=#f8cecc;strokeColor=#b85450;fontSize=40;" parent="1" vertex="1">
          <mxGeometry x="1082.69" y="1102.32" width="629.92" height="314.95" as="geometry" />
        </mxCell>
        <mxCell id="YLB4VQ5ai_CObTcbY1BT-38" value="Tech-Container&lt;br&gt;W2" style="rounded=0;whiteSpace=wrap;html=1;fillColor=#f8cecc;strokeColor=#b85450;rotation=0;fontSize=40;" parent="1" vertex="1">
          <mxGeometry x="738.19" y="1102.36" width="314.96" height="314.96" as="geometry" />
        </mxCell>
        <mxCell id="YLB4VQ5ai_CObTcbY1BT-43" value="Side-Table&lt;div&gt;W3&lt;/div&gt;" style="rounded=0;whiteSpace=wrap;html=1;fillColor=#f8cecc;strokeColor=#b85450;rotation=0;fontSize=40;direction=south;" parent="1" vertex="1">
          <mxGeometry x="738.195" y="610.265" width="314.95" height="472.44" as="geometry" />
        </mxCell>
        <mxCell id="YLB4VQ5ai_CObTcbY1BT-46" value="" style="rounded=0;whiteSpace=wrap;html=1;fillColor=#ffe6cc;strokeColor=#d79b00;fontSize=40;" parent="1" vertex="1">
          <mxGeometry x="3090.5449999999996" y="1417.3149999999996" width="59.05" height="59.04" as="geometry" />
        </mxCell>
        <mxCell id="YLB4VQ5ai_CObTcbY1BT-49" value="" style="endArrow=none;html=1;rounded=0;" parent="1" edge="1">
          <mxGeometry width="50" height="50" relative="1" as="geometry">
            <mxPoint x="4212.91" y="492.12999999999994" as="sourcePoint" />
            <mxPoint x="4251.91" y="453.21999999999997" as="targetPoint" />
          </mxGeometry>
        </mxCell>
        <mxCell id="YLB4VQ5ai_CObTcbY1BT-50" value="" style="endArrow=none;html=1;rounded=0;" parent="1" edge="1">
          <mxGeometry width="50" height="50" relative="1" as="geometry">
            <mxPoint x="4212.594999999999" y="1653.075" as="sourcePoint" />
            <mxPoint x="4251.594999999999" y="1614.165" as="targetPoint" />
          </mxGeometry>
        </mxCell>
        <mxCell id="YLB4VQ5ai_CObTcbY1BT-51" value="" style="endArrow=none;html=1;rounded=0;" parent="1" edge="1">
          <mxGeometry width="50" height="50" relative="1" as="geometry">
            <mxPoint x="4212.599999999999" y="2046.78" as="sourcePoint" />
            <mxPoint x="4251.599999999999" y="2007.8700000000001" as="targetPoint" />
          </mxGeometry>
        </mxCell>
        <mxCell id="YLB4VQ5ai_CObTcbY1BT-53" value="&lt;font style=&quot;font-size: 50px;&quot; face=&quot;Courier New&quot;&gt;225&lt;/font&gt;" style="endArrow=none;startArrow=none;html=1;rounded=0;startFill=0;endFill=0;" parent="1" edge="1">
          <mxGeometry width="50" height="50" relative="1" as="geometry">
            <mxPoint x="4231.91" y="2913.3799999999997" as="sourcePoint" />
            <mxPoint x="4232.655" y="2027.7150000000004" as="targetPoint" />
          </mxGeometry>
        </mxCell>
        <mxCell id="YLB4VQ5ai_CObTcbY1BT-54" value="" style="endArrow=none;html=1;rounded=0;" parent="1" edge="1">
          <mxGeometry width="50" height="50" relative="1" as="geometry">
            <mxPoint x="4212.594999999999" y="2932.6049999999996" as="sourcePoint" />
            <mxPoint x="4251.594999999999" y="2893.6949999999997" as="targetPoint" />
          </mxGeometry>
        </mxCell>
        <mxCell id="YLB4VQ5ai_CObTcbY1BT-55" value="" style="endArrow=none;html=1;rounded=0;" parent="1" edge="1">
          <mxGeometry width="50" height="50" relative="1" as="geometry">
            <mxPoint x="157" y="472" as="sourcePoint" />
            <mxPoint x="531" y="472" as="targetPoint" />
          </mxGeometry>
        </mxCell>
        <mxCell id="YLB4VQ5ai_CObTcbY1BT-56" value="&lt;font face=&quot;Courier New&quot; style=&quot;font-size: 50px;&quot;&gt;520&lt;/font&gt;" style="endArrow=none;startArrow=none;html=1;rounded=0;startFill=0;endFill=0;" parent="1" edge="1">
          <mxGeometry width="50" height="50" relative="1" as="geometry">
            <mxPoint x="197" y="2520" as="sourcePoint" />
            <mxPoint x="197.21500000000015" y="472.065" as="targetPoint" />
          </mxGeometry>
        </mxCell>
        <mxCell id="YLB4VQ5ai_CObTcbY1BT-57" value="" style="endArrow=none;html=1;rounded=0;" parent="1" edge="1">
          <mxGeometry width="50" height="50" relative="1" as="geometry">
            <mxPoint x="157.505" y="2516.815" as="sourcePoint" />
            <mxPoint x="531.505" y="2516.815" as="targetPoint" />
          </mxGeometry>
        </mxCell>
        <mxCell id="YLB4VQ5ai_CObTcbY1BT-58" value="" style="endArrow=none;html=1;rounded=0;" parent="1" edge="1">
          <mxGeometry width="50" height="50" relative="1" as="geometry">
            <mxPoint x="157.5" y="2910.52" as="sourcePoint" />
            <mxPoint x="531.5" y="2910.52" as="targetPoint" />
          </mxGeometry>
        </mxCell>
        <mxCell id="YLB4VQ5ai_CObTcbY1BT-59" value="" style="endArrow=none;html=1;rounded=0;" parent="1" edge="1">
          <mxGeometry width="50" height="50" relative="1" as="geometry">
            <mxPoint x="177.16500000000042" y="492.11499999999995" as="sourcePoint" />
            <mxPoint x="216.16500000000042" y="453.205" as="targetPoint" />
          </mxGeometry>
        </mxCell>
        <mxCell id="YLB4VQ5ai_CObTcbY1BT-60" value="" style="endArrow=none;html=1;rounded=0;" parent="1" edge="1">
          <mxGeometry width="50" height="50" relative="1" as="geometry">
            <mxPoint x="177.1700000000004" y="2538.6800000000003" as="sourcePoint" />
            <mxPoint x="216" y="2500" as="targetPoint" />
          </mxGeometry>
        </mxCell>
        <mxCell id="YLB4VQ5ai_CObTcbY1BT-61" value="&lt;font style=&quot;font-size: 50px;&quot; face=&quot;Courier New&quot;&gt;100&lt;/font&gt;" style="endArrow=none;startArrow=none;html=1;rounded=0;startFill=0;endFill=0;" parent="1" edge="1">
          <mxGeometry width="50" height="50" relative="1" as="geometry">
            <mxPoint x="196.84500000000025" y="2913.025" as="sourcePoint" />
            <mxPoint x="197.21500000000015" y="2519.665" as="targetPoint" />
          </mxGeometry>
        </mxCell>
        <mxCell id="YLB4VQ5ai_CObTcbY1BT-62" value="" style="endArrow=none;html=1;rounded=0;" parent="1" edge="1">
          <mxGeometry width="50" height="50" relative="1" as="geometry">
            <mxPoint x="177.16499999999996" y="2932.605" as="sourcePoint" />
            <mxPoint x="216.16499999999996" y="2893.695" as="targetPoint" />
          </mxGeometry>
        </mxCell>
        <mxCell id="hzdrwuRodng1YFCwllb1-2" value="" style="rounded=0;whiteSpace=wrap;html=1;fillColor=#ffe6cc;strokeColor=#d79b00;fontSize=40;" vertex="1" parent="1">
          <mxGeometry x="2224.405" y="1417.2749999999996" width="59.05" height="59.04" as="geometry" />
        </mxCell>
        <mxCell id="hzdrwuRodng1YFCwllb1-4" value="" style="rounded=0;whiteSpace=wrap;html=1;fillColor=#ffe6cc;strokeColor=#d79b00;fontSize=40;" vertex="1" parent="1">
          <mxGeometry x="3011.794999999999" y="1712.585" width="157.49" height="236.22" as="geometry" />
        </mxCell>
        <mxCell id="hzdrwuRodng1YFCwllb1-5" value="" style="rounded=0;whiteSpace=wrap;html=1;fillColor=#ffe6cc;strokeColor=#d79b00;fontSize=40;" vertex="1" parent="1">
          <mxGeometry x="3011.79" y="1948.81" width="157.49" height="157.48" as="geometry" />
        </mxCell>
        <mxCell id="hzdrwuRodng1YFCwllb1-6" value="" style="rounded=0;whiteSpace=wrap;html=1;fillColor=#f5f5f5;fontColor=#333333;strokeColor=none;fontSize=40;" vertex="1" parent="1">
          <mxGeometry x="3169.29" y="472.44" width="314.99" height="1161.41" as="geometry" />
        </mxCell>
        <mxCell id="hzdrwuRodng1YFCwllb1-7" value="" style="rounded=0;whiteSpace=wrap;html=1;fillColor=#fff2cc;strokeColor=#d6b656;fontSize=40;" vertex="1" parent="1">
          <mxGeometry x="728.35" y="511.73" width="1043.3" height="19.81" as="geometry" />
        </mxCell>
        <mxCell id="hzdrwuRodng1YFCwllb1-8" value="Drum-Set&lt;div&gt;DS&lt;/div&gt;" style="rounded=0;whiteSpace=wrap;html=1;fillColor=#e1d5e7;strokeColor=#9673a6;fontSize=40;" vertex="1" parent="1">
          <mxGeometry x="2204.72" y="1496.0500000000002" width="787.4" height="787.39" as="geometry" />
        </mxCell>
        <mxCell id="hzdrwuRodng1YFCwllb1-9" value="" style="rounded=0;whiteSpace=wrap;html=1;fillColor=#fff2cc;strokeColor=#d6b656;fontSize=40;" vertex="1" parent="1">
          <mxGeometry x="688.99" y="551.15" width="19.67" height="866.17" as="geometry" />
        </mxCell>
        <mxCell id="hzdrwuRodng1YFCwllb1-10" value="" style="rounded=0;whiteSpace=wrap;html=1;fillColor=#ffe6cc;strokeColor=#d79b00;fontSize=40;" vertex="1" parent="1">
          <mxGeometry x="1712.61" y="1476.38" width="118.09" height="59.04" as="geometry" />
        </mxCell>
        <mxCell id="hzdrwuRodng1YFCwllb1-13" value="" style="rounded=0;whiteSpace=wrap;html=1;fillColor=#ffe6cc;strokeColor=#d79b00;fontSize=40;" vertex="1" parent="1">
          <mxGeometry x="669.2949999999998" y="2421.245" width="59.05" height="59.04" as="geometry" />
        </mxCell>
        <mxCell id="hzdrwuRodng1YFCwllb1-15" value="" style="rounded=0;whiteSpace=wrap;html=1;fillColor=#f5f5f5;fontColor=#333333;strokeColor=none;fontSize=40;" vertex="1" parent="1">
          <mxGeometry x="649.61" y="472.44" width="2539.36" height="19.68" as="geometry" />
        </mxCell>
        <mxCell id="hzdrwuRodng1YFCwllb1-16" value="" style="rounded=0;whiteSpace=wrap;html=1;fillColor=#f5f5f5;fontColor=#333333;strokeColor=none;fontSize=40;" vertex="1" parent="1">
          <mxGeometry x="649.61" y="492.11" width="19.69" height="2027.57" as="geometry" />
        </mxCell>
        <mxCell id="hzdrwuRodng1YFCwllb1-19" value="" style="rounded=0;whiteSpace=wrap;html=1;fontSize=40;" vertex="1" parent="1">
          <mxGeometry x="728.38" y="1437.01" width="1043.27" height="19.68" as="geometry" />
        </mxCell>
        <mxCell id="hzdrwuRodng1YFCwllb1-21" value="" style="rounded=0;whiteSpace=wrap;html=1;fontSize=40;" vertex="1" parent="1">
          <mxGeometry x="1791.3600000000001" y="1023.64" width="19.69" height="393.7" as="geometry" />
        </mxCell>
        <mxCell id="hzdrwuRodng1YFCwllb1-22" value="CornerLab-Roomplan" style="text;html=1;align=center;verticalAlign=middle;whiteSpace=wrap;rounded=0;fontSize=100;fontFamily=Courier New;fontStyle=5" vertex="1" parent="1">
          <mxGeometry x="39.37" y="39.37" width="1102.36" height="118.11" as="geometry" />
        </mxCell>
        <mxCell id="YLB4VQ5ai_CObTcbY1BT-44" value="" style="rounded=0;whiteSpace=wrap;html=1;fillColor=#ffe6cc;strokeColor=#d79b00;fontSize=40;" parent="1" vertex="1">
          <mxGeometry x="1771.68" y="492.1099999999999" width="59.05" height="59.04" as="geometry" />
        </mxCell>
        <mxCell id="YLB4VQ5ai_CObTcbY1BT-45" value="" style="rounded=0;whiteSpace=wrap;html=1;fillColor=#ffe6cc;strokeColor=#d79b00;fontSize=40;" parent="1" vertex="1">
          <mxGeometry x="2224.41" y="492.14999999999964" width="59.05" height="59.04" as="geometry" />
        </mxCell>
        <mxCell id="hzdrwuRodng1YFCwllb1-3" value="" style="rounded=0;whiteSpace=wrap;html=1;fillColor=#ffe6cc;strokeColor=#d79b00;fontSize=40;" vertex="1" parent="1">
          <mxGeometry x="3090.545" y="492.1549999999997" width="59.05" height="59.04" as="geometry" />
        </mxCell>
        <mxCell id="YLB4VQ5ai_CObTcbY1BT-40" value="" style="rounded=0;whiteSpace=wrap;html=1;fillColor=#ffe6cc;strokeColor=#d79b00;fontSize=40;" parent="1" vertex="1">
          <mxGeometry x="669.2949999999998" y="492.12499999999994" width="59.05" height="59.04" as="geometry" />
        </mxCell>
        <mxCell id="YLB4VQ5ai_CObTcbY1BT-41" value="" style="rounded=0;whiteSpace=wrap;html=1;fillColor=#ffe6cc;strokeColor=#d79b00;fontSize=40;" parent="1" vertex="1">
          <mxGeometry x="1771.6749999999997" y="1417.3449999999998" width="59.05" height="59.04" as="geometry" />
        </mxCell>
        <mxCell id="YLB4VQ5ai_CObTcbY1BT-39" value="" style="rounded=0;whiteSpace=wrap;html=1;fillColor=#ffe6cc;strokeColor=#d79b00;fontSize=40;" parent="1" vertex="1">
          <mxGeometry x="669.2999999999998" y="1417.32" width="59.05" height="59.04" as="geometry" />
        </mxCell>
        <mxCell id="hzdrwuRodng1YFCwllb1-25" value="" style="endArrow=none;html=1;rounded=0;exitX=0.5;exitY=0;exitDx=0;exitDy=0;" edge="1" parent="1" source="YLB4VQ5ai_CObTcbY1BT-40">
          <mxGeometry width="50" height="50" relative="1" as="geometry">
            <mxPoint x="866" y="227" as="sourcePoint" />
            <mxPoint x="699" y="236" as="targetPoint" />
          </mxGeometry>
        </mxCell>
        <mxCell id="hzdrwuRodng1YFCwllb1-27" value="" style="endArrow=none;html=1;rounded=0;exitX=0.5;exitY=0;exitDx=0;exitDy=0;" edge="1" parent="1">
          <mxGeometry width="50" height="50" relative="1" as="geometry">
            <mxPoint x="1800.485" y="492.125" as="sourcePoint" />
            <mxPoint x="1800" y="236" as="targetPoint" />
          </mxGeometry>
        </mxCell>
        <mxCell id="hzdrwuRodng1YFCwllb1-28" value="&lt;font style=&quot;font-size: 50px;&quot; face=&quot;Courier New&quot;&gt;280&lt;/font&gt;" style="endArrow=none;html=1;rounded=0;" edge="1" parent="1">
          <mxGeometry width="50" height="50" relative="1" as="geometry">
            <mxPoint x="698.8175" y="275.59000000000003" as="sourcePoint" />
            <mxPoint x="1801.1775" y="275.59000000000003" as="targetPoint" />
          </mxGeometry>
        </mxCell>
        <mxCell id="hzdrwuRodng1YFCwllb1-29" value="" style="endArrow=none;html=1;rounded=0;" edge="1" parent="1">
          <mxGeometry width="50" height="50" relative="1" as="geometry">
            <mxPoint x="679.3400000000004" y="294.81999999999994" as="sourcePoint" />
            <mxPoint x="718.3400000000004" y="255.91" as="targetPoint" />
          </mxGeometry>
        </mxCell>
        <mxCell id="hzdrwuRodng1YFCwllb1-30" value="" style="endArrow=none;html=1;rounded=0;" edge="1" parent="1">
          <mxGeometry width="50" height="50" relative="1" as="geometry">
            <mxPoint x="1781.6950000000004" y="294.81499999999994" as="sourcePoint" />
            <mxPoint x="1820.6950000000004" y="255.905" as="targetPoint" />
          </mxGeometry>
        </mxCell>
        <mxCell id="hzdrwuRodng1YFCwllb1-32" value="Couch&lt;br&gt;C1" style="rounded=0;whiteSpace=wrap;html=1;fillColor=#d5e8d4;strokeColor=#82b366;fontSize=40;" vertex="1" parent="1">
          <mxGeometry x="728.36" y="1535.39" width="472.42" height="944.92" as="geometry" />
        </mxCell>
        <mxCell id="hzdrwuRodng1YFCwllb1-33" value="" style="rounded=0;whiteSpace=wrap;html=1;fillColor=#d5e8d4;strokeColor=#82b366;fontSize=40;" vertex="1" parent="1">
          <mxGeometry x="1200.78" y="1535.39" width="708.67" height="393.74" as="geometry" />
        </mxCell>
        <mxCell id="hzdrwuRodng1YFCwllb1-34" value="" style="endArrow=none;html=1;rounded=0;" edge="1" parent="1">
          <mxGeometry width="50" height="50" relative="1" as="geometry">
            <mxPoint x="315" y="521" as="sourcePoint" />
            <mxPoint x="669.3149999999999" y="521.1049999999999" as="targetPoint" />
          </mxGeometry>
        </mxCell>
        <mxCell id="hzdrwuRodng1YFCwllb1-35" value="" style="endArrow=none;html=1;rounded=0;" edge="1" parent="1">
          <mxGeometry width="50" height="50" relative="1" as="geometry">
            <mxPoint x="314.985" y="1446.155" as="sourcePoint" />
            <mxPoint x="669.2999999999998" y="1446.2599999999998" as="targetPoint" />
          </mxGeometry>
        </mxCell>
        <mxCell id="hzdrwuRodng1YFCwllb1-36" value="&lt;font face=&quot;Courier New&quot; style=&quot;font-size: 50px;&quot;&gt;235&lt;/font&gt;" style="endArrow=none;startArrow=none;html=1;rounded=0;startFill=0;endFill=0;" edge="1" parent="1">
          <mxGeometry width="50" height="50" relative="1" as="geometry">
            <mxPoint x="354.33" y="1446.8474999999999" as="sourcePoint" />
            <mxPoint x="354.33" y="521.6525" as="targetPoint" />
          </mxGeometry>
        </mxCell>
        <mxCell id="hzdrwuRodng1YFCwllb1-37" value="" style="endArrow=none;html=1;rounded=0;" edge="1" parent="1">
          <mxGeometry width="50" height="50" relative="1" as="geometry">
            <mxPoint x="334.64000000000044" y="541.0999999999999" as="sourcePoint" />
            <mxPoint x="373.64000000000044" y="502.19" as="targetPoint" />
          </mxGeometry>
        </mxCell>
        <mxCell id="hzdrwuRodng1YFCwllb1-38" value="" style="endArrow=none;html=1;rounded=0;" edge="1" parent="1">
          <mxGeometry width="50" height="50" relative="1" as="geometry">
            <mxPoint x="334.64500000000044" y="1466.2849999999999" as="sourcePoint" />
            <mxPoint x="373.64500000000044" y="1427.375" as="targetPoint" />
          </mxGeometry>
        </mxCell>
        <mxCell id="hzdrwuRodng1YFCwllb1-39" value="Clothing&lt;div&gt;S1&lt;/div&gt;" style="rounded=0;whiteSpace=wrap;html=1;fillColor=#dae8fc;strokeColor=#6c8ebf;fontSize=40;" vertex="1" parent="1">
          <mxGeometry x="1771.65" y="551.19" width="629.93" height="196.85" as="geometry" />
        </mxCell>
        <mxCell id="hzdrwuRodng1YFCwllb1-40" value="" style="rounded=0;whiteSpace=wrap;html=1;fillColor=#ffe6cc;strokeColor=#d79b00;fontSize=40;" vertex="1" parent="1">
          <mxGeometry x="2559.04" y="492.1" width="472.45" height="59.04" as="geometry" />
        </mxCell>
        <mxCell id="hzdrwuRodng1YFCwllb1-41" value="" style="rounded=0;whiteSpace=wrap;html=1;fillColor=#ffe6cc;strokeColor=#d79b00;rotation=90;fontSize=40;" vertex="1" parent="1">
          <mxGeometry x="2814.955" y="708.6649999999997" width="492.13" height="59.04" as="geometry" />
        </mxCell>
        <mxCell id="hzdrwuRodng1YFCwllb1-42" value="" style="rounded=0;whiteSpace=wrap;html=1;fillColor=#ffe6cc;strokeColor=#d79b00;rotation=90;fontSize=40;" vertex="1" parent="1">
          <mxGeometry x="2814.9599999999996" y="1200.7899999999997" width="492.13" height="59.04" as="geometry" />
        </mxCell>
        <mxCell id="hzdrwuRodng1YFCwllb1-44" value="" style="rounded=0;whiteSpace=wrap;html=1;fontSize=40;" vertex="1" parent="1">
          <mxGeometry x="3110.23" y="551.15" width="19.69" height="866.18" as="geometry" />
        </mxCell>
        <mxCell id="hzdrwuRodng1YFCwllb1-45" value="" style="rounded=0;whiteSpace=wrap;html=1;fillColor=#ffe6cc;strokeColor=#d79b00;fontSize=40;" vertex="1" parent="1">
          <mxGeometry x="2539.3599999999997" y="1417.28" width="492.13" height="59.04" as="geometry" />
        </mxCell>
        <mxCell id="hzdrwuRodng1YFCwllb1-47" value="" style="rounded=0;whiteSpace=wrap;html=1;fontSize=40;" vertex="1" parent="1">
          <mxGeometry x="2283.46" y="1437.03" width="748.03" height="19.68" as="geometry" />
        </mxCell>
        <mxCell id="hzdrwuRodng1YFCwllb1-48" value="Armchair&lt;div&gt;T1&lt;/div&gt;" style="ellipse;whiteSpace=wrap;html=1;aspect=fixed;fillColor=#d5e8d4;strokeColor=#82b366;fontSize=40;" vertex="1" parent="1">
          <mxGeometry x="2263.77" y="2460.63" width="393.7" height="393.7" as="geometry" />
        </mxCell>
        <mxCell id="hzdrwuRodng1YFCwllb1-50" value="" style="rounded=0;whiteSpace=wrap;html=1;fontSize=40;" vertex="1" parent="1">
          <mxGeometry x="708.66" y="2874.01" width="314.96" height="19.68" as="geometry" />
        </mxCell>
        <mxCell id="hzdrwuRodng1YFCwllb1-51" value="" style="rounded=0;whiteSpace=wrap;html=1;fontSize=40;" vertex="1" parent="1">
          <mxGeometry x="2244.095" y="2874.0150000000003" width="314.96" height="19.68" as="geometry" />
        </mxCell>
        <mxCell id="hzdrwuRodng1YFCwllb1-52" value="Armchair&lt;div&gt;&lt;span style=&quot;background-color: initial;&quot;&gt;T1&lt;/span&gt;&lt;/div&gt;" style="ellipse;whiteSpace=wrap;html=1;aspect=fixed;fillColor=#d5e8d4;strokeColor=#82b366;fontSize=40;" vertex="1" parent="1">
          <mxGeometry x="2834.635" y="2499.995" width="393.7" height="393.7" as="geometry" />
        </mxCell>
        <mxCell id="hzdrwuRodng1YFCwllb1-53" value="" style="rounded=0;whiteSpace=wrap;html=1;fillColor=#fff2cc;strokeColor=#d6b656;fontSize=40;" vertex="1" parent="1">
          <mxGeometry x="1830.73" y="492.1" width="393.67" height="59.05" as="geometry" />
        </mxCell>
        <mxCell id="hzdrwuRodng1YFCwllb1-54" value="" style="rounded=0;whiteSpace=wrap;html=1;fillColor=#fff2cc;strokeColor=#d6b656;fontSize=40;" vertex="1" parent="1">
          <mxGeometry x="2283.46" y="492.16" width="275.59" height="59.05" as="geometry" />
        </mxCell>
        <mxCell id="hzdrwuRodng1YFCwllb1-55" value="" style="rounded=0;whiteSpace=wrap;html=1;fontSize=40;" vertex="1" parent="1">
          <mxGeometry x="2244.085" y="1023.575" width="19.69" height="393.7" as="geometry" />
        </mxCell>
        <mxCell id="hzdrwuRodng1YFCwllb1-56" value="Couch-Table&lt;div&gt;C2&lt;/div&gt;" style="rounded=0;whiteSpace=wrap;html=1;fillColor=#f8cecc;strokeColor=#b85450;rotation=0;fontSize=40;direction=south;" vertex="1" parent="1">
          <mxGeometry x="1338.5800000000002" y="2047.24" width="472.44" height="236.22" as="geometry" />
        </mxCell>
        <mxCell id="hzdrwuRodng1YFCwllb1-57" value="" style="rounded=0;whiteSpace=wrap;html=1;fillColor=#ffe6cc;strokeColor=#d79b00;fontSize=40;" vertex="1" parent="1">
          <mxGeometry x="3090.5499999999997" y="2106.2899999999995" width="59.05" height="59.04" as="geometry" />
        </mxCell>
        <mxCell id="hzdrwuRodng1YFCwllb1-58" value="Shelf - S3" style="rounded=0;whiteSpace=wrap;html=1;fillColor=#dae8fc;strokeColor=#6c8ebf;fontSize=40;" vertex="1" parent="1">
          <mxGeometry x="1181.1100000000001" y="531.54" width="393.69" height="78.7" as="geometry" />
        </mxCell>
        <mxCell id="hzdrwuRodng1YFCwllb1-59" value="Books&lt;div&gt;S2&lt;/div&gt;" style="rounded=0;whiteSpace=wrap;html=1;fillColor=#dae8fc;strokeColor=#6c8ebf;fontSize=40;" vertex="1" parent="1">
          <mxGeometry x="1574.8" y="531.54" width="196.85" height="157.47" as="geometry" />
        </mxCell>
        <mxCell id="hzdrwuRodng1YFCwllb1-60" value="" style="endArrow=none;html=1;rounded=0;exitX=0.5;exitY=0;exitDx=0;exitDy=0;" edge="1" parent="1">
          <mxGeometry width="50" height="50" relative="1" as="geometry">
            <mxPoint x="648.9799999999998" y="3267.9300000000003" as="sourcePoint" />
            <mxPoint x="648.4949999999999" y="3011.8050000000003" as="targetPoint" />
          </mxGeometry>
        </mxCell>
        <mxCell id="hzdrwuRodng1YFCwllb1-61" value="" style="endArrow=none;html=1;rounded=0;exitX=0.5;exitY=0;exitDx=0;exitDy=0;" edge="1" parent="1">
          <mxGeometry width="50" height="50" relative="1" as="geometry">
            <mxPoint x="2500.4799999999996" y="3267.93" as="sourcePoint" />
            <mxPoint x="2499.995" y="3011.805" as="targetPoint" />
          </mxGeometry>
        </mxCell>
        <mxCell id="hzdrwuRodng1YFCwllb1-62" value="&lt;font style=&quot;font-size: 50px;&quot; face=&quot;Courier New&quot;&gt;470&lt;/font&gt;" style="endArrow=none;html=1;rounded=0;" edge="1" parent="1">
          <mxGeometry width="50" height="50" relative="1" as="geometry">
            <mxPoint x="649.6125" y="3228.3450000000003" as="sourcePoint" />
            <mxPoint x="2500" y="3228.3399999999997" as="targetPoint" />
          </mxGeometry>
        </mxCell>
        <mxCell id="hzdrwuRodng1YFCwllb1-63" value="" style="endArrow=none;html=1;rounded=0;" edge="1" parent="1">
          <mxGeometry width="50" height="50" relative="1" as="geometry">
            <mxPoint x="630.3" y="3247.56" as="sourcePoint" />
            <mxPoint x="669.3" y="3208.65" as="targetPoint" />
          </mxGeometry>
        </mxCell>
        <mxCell id="hzdrwuRodng1YFCwllb1-64" value="" style="endArrow=none;html=1;rounded=0;" edge="1" parent="1">
          <mxGeometry width="50" height="50" relative="1" as="geometry">
            <mxPoint x="2480.305" y="3247.565" as="sourcePoint" />
            <mxPoint x="2519.305" y="3208.655" as="targetPoint" />
          </mxGeometry>
        </mxCell>
        <mxCell id="hzdrwuRodng1YFCwllb1-65" value="" style="endArrow=none;html=1;rounded=0;exitX=0.5;exitY=0;exitDx=0;exitDy=0;" edge="1" parent="1">
          <mxGeometry width="50" height="50" relative="1" as="geometry">
            <mxPoint x="3719.4149999999995" y="3267.9249999999997" as="sourcePoint" />
            <mxPoint x="3718.93" y="3011.7999999999997" as="targetPoint" />
          </mxGeometry>
        </mxCell>
        <mxCell id="hzdrwuRodng1YFCwllb1-66" value="&lt;font style=&quot;font-size: 50px;&quot; face=&quot;Courier New&quot;&gt;310&lt;/font&gt;" style="endArrow=none;html=1;rounded=0;" edge="1" parent="1">
          <mxGeometry width="50" height="50" relative="1" as="geometry">
            <mxPoint x="2499.9975" y="3228.3500000000004" as="sourcePoint" />
            <mxPoint x="3720" y="3228" as="targetPoint" />
          </mxGeometry>
        </mxCell>
        <mxCell id="hzdrwuRodng1YFCwllb1-67" value="Small&lt;div&gt;Table&lt;br&gt;T2&lt;/div&gt;" style="rounded=0;whiteSpace=wrap;html=1;fillColor=#f8cecc;strokeColor=#b85450;rotation=0;fontSize=40;" vertex="1" parent="1">
          <mxGeometry x="2657.4800000000005" y="2736.2100000000005" width="157.48" height="157.48" as="geometry" />
        </mxCell>
        <mxCell id="hzdrwuRodng1YFCwllb1-69" value="&lt;font style=&quot;font-size: 60px;&quot;&gt;Iteration 3 - Mk2.3.0 - 2024 / 11 / 26&lt;/font&gt;" style="text;html=1;align=right;verticalAlign=middle;whiteSpace=wrap;rounded=0;fontSize=100;fontFamily=Courier New;" vertex="1" parent="1">
          <mxGeometry x="2992.12" y="39.36" width="1653.55" height="78.74" as="geometry" />
        </mxCell>
        <mxCell id="hzdrwuRodng1YFCwllb1-70" value="&lt;font style=&quot;font-size: 60px;&quot;&gt;Scale 1:10&lt;/font&gt;" style="text;html=1;align=right;verticalAlign=middle;whiteSpace=wrap;rounded=0;fontSize=100;fontFamily=Courier New;" vertex="1" parent="1">
          <mxGeometry x="3543.295" y="157.47500000000002" width="1102.36" height="78.74" as="geometry" />
        </mxCell>
        <mxCell id="hzdrwuRodng1YFCwllb1-1" value="" style="rounded=0;whiteSpace=wrap;html=1;fillColor=#ffe6cc;strokeColor=#d79b00;fontSize=40;" vertex="1" parent="1">
          <mxGeometry x="3011.7999999999997" y="1476.3700000000001" width="157.49" height="236.22" as="geometry" />
        </mxCell>
        <mxCell id="hzdrwuRodng1YFCwllb1-71" value="Armchair&lt;div&gt;W4&lt;/div&gt;" style="ellipse;whiteSpace=wrap;html=1;aspect=fixed;fillColor=#d5e8d4;strokeColor=#82b366;fontSize=40;" vertex="1" parent="1">
          <mxGeometry x="1220.4799999999998" y="708.68" width="314.96" height="314.96" as="geometry" />
        </mxCell>
      </root>
    </mxGraphModel>
  </diagram>
</mxfile>
